# xmcd CD database file
#
# Track frame offsets:
#	187
#	20174
#	45787
#
# Disc length: 824 seconds
#
# Revision: 0
# Processed by: cddbd v1.5PL3 Copyright (c) Steve Scherf et al.
# Submitted via: CDex 1.50beta8
#
DISCID=19033603
DTITLE=レピッシュ - 記憶喪失
DYEAR=1996
DGENRE=Rock
TTITLE0=記憶喪失
TTITLE1=サイクリング
TTITLE2=解凍2030
EXTD=YEAR: 1996
EXTT0=
EXTT1=
EXTT2=
PLAYORDER=
